<?xml version="1.0" encoding="UTF-8" standalone="no"?>
<!-- Created with Inkscape (http://www.inkscape.org/) -->

<svg
   xmlns:dc="http://purl.org/dc/elements/1.1/"
   xmlns:cc="http://creativecommons.org/ns#"
   xmlns:rdf="http://www.w3.org/1999/02/22-rdf-syntax-ns#"
   xmlns:svg="http://www.w3.org/2000/svg"
   xmlns="http://www.w3.org/2000/svg"
   xmlns:sodipodi="http://sodipodi.sourceforge.net/DTD/sodipodi-0.dtd"
   xmlns:inkscape="http://www.inkscape.org/namespaces/inkscape"
   width="525.93958mm"
   height="294.27206mm"
   viewBox="0 0 1863.5655 1042.6963"
   id="svg6064"
   version="1.1"
   inkscape:version="0.91 r13725"
   sodipodi:docname="harddrive.svg">
  <defs
     id="defs6066" />
  <sodipodi:namedview
     id="base"
     pagecolor="#ffffff"
     bordercolor="#666666"
     borderopacity="1.0"
     inkscape:pageopacity="0.0"
     inkscape:pageshadow="2"
     inkscape:zoom="0.061871843"
     inkscape:cx="5206.6093"
     inkscape:cy="-3351.3942"
     inkscape:document-units="px"
     inkscape:current-layer="layer1"
     showgrid="false"
     fit-margin-top="0"
     fit-margin-left="0"
     fit-margin-right="0"
     fit-margin-bottom="0"
     inkscape:window-width="1536"
     inkscape:window-height="803"
     inkscape:window-x="-8"
     inkscape:window-y="-8"
     inkscape:window-maximized="1" />
  <metadata
     id="metadata6069">
    <rdf:RDF>
      <cc:Work
         rdf:about="">
        <dc:format>image/svg+xml</dc:format>
        <dc:type
           rdf:resource="http://purl.org/dc/dcmitype/StillImage" />
        <dc:title></dc:title>
      </cc:Work>
    </rdf:RDF>
  </metadata>
  <g
     inkscape:label="Livello 1"
     inkscape:groupmode="layer"
     id="layer1"
     transform="translate(4287.1736,2779.2373)">
    <g
       id="g5278"
       transform="matrix(0.91024727,0,0,0.91024727,19922.901,14926.594)"
       inkscape:export-filename="C:\Users\marco_000\Documents\GitHub\worldwithoutinternet\img\harddrive.png"
       inkscape:export-xdpi="95"
       inkscape:export-ydpi="95">
      <g
         transform="matrix(2.7705329,0,0,2.7705329,49020.391,33879.082)"
         id="g5229">
        <g
           id="g5223"
           transform="translate(-11.784774,13.552574)">
          <rect
             y="-19111.385"
             x="-27281.752"
             height="64.816254"
             width="71.494293"
             id="rect5209"
             style="opacity:1;fill:#e1e1e2;fill-opacity:1;stroke:none;stroke-width:74.80000305;stroke-linecap:square;stroke-linejoin:round;stroke-miterlimit:4;stroke-dasharray:none;stroke-opacity:1" />
          <g
             transform="translate(-75.815379,-44.389315)"
             id="g5219">
            <rect
               style="opacity:1;fill:#c4c3c4;fill-opacity:1;stroke:none;stroke-width:74.80000305;stroke-linecap:square;stroke-linejoin:round;stroke-miterlimit:4;stroke-dasharray:none;stroke-opacity:1"
               id="rect5211"
               width="27.890631"
               height="14.534554"
               x="-27199.258"
               y="-19058.354" />
            <rect
               y="-19026.354"
               x="-27199.258"
               height="14.534554"
               width="27.890631"
               id="rect5213"
               style="opacity:1;fill:#c4c3c4;fill-opacity:1;stroke:none;stroke-width:74.80000305;stroke-linecap:square;stroke-linejoin:round;stroke-miterlimit:4;stroke-dasharray:none;stroke-opacity:1" />
          </g>
        </g>
        <rect
           style="opacity:1;fill:#bc3908;fill-opacity:1;stroke:none;stroke-width:74.80000305;stroke-linecap:square;stroke-linejoin:round;stroke-miterlimit:4;stroke-dasharray:none;stroke-opacity:1"
           id="rect5207"
           width="267.9072"
           height="110.77687"
           x="-27232.613"
           y="-19120.812" />
      </g>
      <g
         transform="matrix(3.4707153,0,0,3.4707153,67705.108,47122.816)"
         style="fill:#f6aa1c;fill-opacity:1"
         id="g5267">
        <path
           style="opacity:1;fill:#f6aa1c;fill-opacity:1;stroke:none;stroke-width:74.80000305;stroke-linecap:square;stroke-linejoin:round;stroke-miterlimit:4;stroke-dasharray:none;stroke-opacity:1"
           id="path5237"
           sodipodi:type="arc"
           sodipodi:cx="-27060.74"
           sodipodi:cy="-19035.531"
           sodipodi:rx="10.702348"
           sodipodi:ry="11.249438"
           sodipodi:start="4.7304494"
           sodipodi:end="4.6884038"
           d="m -27060.547,-19046.779 a 10.702348,11.249438 0 0 1 10.509,11.333 10.702348,11.249438 0 0 1 -10.671,11.164 10.702348,11.249438 0 0 1 -10.733,-11.098 10.702348,11.249438 0 0 1 10.445,-11.397"
           sodipodi:open="true" />
        <path
           sodipodi:open="true"
           d="m -26998.617,-19062.692 a 6.813571,7.1618719 0 0 1 6.69,7.215 6.813571,7.1618719 0 0 1 -6.793,7.108 6.813571,7.1618719 0 0 1 -6.833,-7.066 6.813571,7.1618719 0 0 1 6.649,-7.256"
           sodipodi:end="4.6884038"
           sodipodi:start="4.7304494"
           sodipodi:ry="7.1618719"
           sodipodi:rx="6.813571"
           sodipodi:cy="-19055.531"
           sodipodi:cx="-26998.74"
           sodipodi:type="arc"
           id="path5239"
           style="opacity:1;fill:#f6aa1c;fill-opacity:1;stroke:none;stroke-width:74.80000305;stroke-linecap:square;stroke-linejoin:round;stroke-miterlimit:4;stroke-dasharray:none;stroke-opacity:1" />
        <rect
           style="opacity:1;fill:#f6aa1c;fill-opacity:1;stroke:none;stroke-width:74.80000305;stroke-linecap:square;stroke-linejoin:round;stroke-miterlimit:4;stroke-dasharray:none;stroke-opacity:1"
           id="rect5241"
           width="13.33295"
           height="14.721799"
           x="-27006.891"
           y="-19022.061" />
        <path
           style="fill:#f6aa1c;fill-opacity:1;fill-rule:evenodd;stroke:none;stroke-width:1px;stroke-linecap:butt;stroke-linejoin:miter;stroke-opacity:1"
           d="m -26957.002,-19041.782 0,14.167 13.055,-7.223 z"
           id="path5243"
           inkscape:connector-curvature="0" />
        <rect
           style="opacity:1;fill:#f6aa1c;fill-opacity:1;stroke:none;stroke-width:74.80000305;stroke-linecap:square;stroke-linejoin:round;stroke-miterlimit:4;stroke-dasharray:none;stroke-opacity:1"
           id="rect5246"
           width="100.13601"
           height="2.638813"
           x="-27054.082"
           y="-19036.018" />
        <rect
           y="-19056.85"
           x="-27020.055"
           height="2.638813"
           width="15.693992"
           id="rect5255"
           style="opacity:1;fill:#f6aa1c;fill-opacity:1;stroke:none;stroke-width:74.80000305;stroke-linecap:square;stroke-linejoin:round;stroke-miterlimit:4;stroke-dasharray:none;stroke-opacity:1" />
        <rect
           style="opacity:1;fill:#f6aa1c;fill-opacity:1;stroke:none;stroke-width:74.80000305;stroke-linecap:square;stroke-linejoin:round;stroke-miterlimit:4;stroke-dasharray:none;stroke-opacity:1"
           id="rect5257"
           width="15.693992"
           height="2.638813"
           x="-27020.055"
           y="-19016.02" />
        <rect
           style="opacity:1;fill:#f6aa1c;fill-opacity:1;stroke:none;stroke-width:74.80000305;stroke-linecap:square;stroke-linejoin:round;stroke-miterlimit:4;stroke-dasharray:none;stroke-opacity:1"
           id="rect5261"
           width="28.942717"
           height="2.5936615"
           x="-3119.1614"
           y="-32797.262"
           transform="matrix(0.67973587,-0.73345699,0.75981249,0.65014228,0,0)" />
        <rect
           transform="matrix(0.67973587,0.73345699,0.75981249,-0.65014228,0,0)"
           y="-6899.5366"
           x="-32067.781"
           height="2.5936615"
           width="28.942717"
           id="rect5265"
           style="opacity:1;fill:#f6aa1c;fill-opacity:1;stroke:none;stroke-width:74.80000305;stroke-linecap:square;stroke-linejoin:round;stroke-miterlimit:4;stroke-dasharray:none;stroke-opacity:1" />
      </g>
    </g>
    <g
       id="g5173"
       inkscape:export-filename="C:\Users\marco_000\Documents\GitHub\worldwithoutinternet\img\harddrive.png"
       inkscape:export-xdpi="95"
       inkscape:export-ydpi="95"
       transform="matrix(5.4392132,0,0,5.4392132,142773.07,121482.92)">
      <g
         transform="matrix(0.61616259,0,0,0.61616259,-9793.9522,-11499.015)"
         id="g5403">
        <g
           id="g5372"
           transform="translate(-144.55989,-82.493417)">
          <rect
             ry="20.426941"
             y="-18332.447"
             x="-27527.184"
             height="311.11893"
             width="243.1479"
             id="rect5334"
             style="opacity:1;fill:#3f3d40;fill-opacity:1;stroke:none;stroke-width:74.80000305;stroke-linecap:square;stroke-linejoin:round;stroke-miterlimit:4;stroke-dasharray:none;stroke-opacity:1" />
          <rect
             ry="0"
             y="-18229.305"
             x="-27510.875"
             height="171.66173"
             width="208.32733"
             id="rect5370"
             style="opacity:1;fill:#1b191c;fill-opacity:1;stroke:none;stroke-width:74.80000305;stroke-linecap:square;stroke-linejoin:round;stroke-miterlimit:4;stroke-dasharray:none;stroke-opacity:1" />
          <g
             transform="matrix(1.0268742,0,0,1.0268742,751.42712,514.56423)"
             id="g5336">
            <path
               d="m -27419.595,-18345.302 a 102.12482,102.12482 0 0 1 100.277,102.88 102.12482,102.12482 0 0 1 -101.819,101.353 102.12482,102.12482 0 0 1 -102.418,-100.749 102.12482,102.12482 0 0 1 99.667,-103.471"
               sodipodi:open="true"
               sodipodi:end="4.6884082"
               sodipodi:start="4.7304531"
               sodipodi:ry="102.12482"
               sodipodi:rx="102.12482"
               sodipodi:cy="-18243.193"
               sodipodi:cx="-27421.439"
               sodipodi:type="arc"
               id="path5367"
               style="opacity:1;fill:#1b191c;fill-opacity:1;stroke:none;stroke-width:74.80000305;stroke-linecap:square;stroke-linejoin:round;stroke-miterlimit:4;stroke-dasharray:none;stroke-opacity:1" />
            <path
               style="opacity:1;fill:#f0f0f0;fill-opacity:1;stroke:none;stroke-width:74.80000305;stroke-linecap:square;stroke-linejoin:round;stroke-miterlimit:4;stroke-dasharray:none;stroke-opacity:1"
               id="path5297"
               sodipodi:type="arc"
               sodipodi:cx="-27421.439"
               sodipodi:cy="-18243.193"
               sodipodi:rx="100.55339"
               sodipodi:ry="100.55339"
               sodipodi:start="4.7304531"
               sodipodi:end="4.6884082"
               sodipodi:open="true"
               d="m -27419.623,-18343.73 a 100.55339,100.55339 0 0 1 98.734,101.296 100.55339,100.55339 0 0 1 -100.253,99.794 100.55339,100.55339 0 0 1 -100.842,-99.199 100.55339,100.55339 0 0 1 98.133,-101.879" />
            <path
               d="m -27420.627,-18288.18 a 44.999435,44.999435 0 0 1 44.186,45.332 44.999435,44.999435 0 0 1 -44.865,44.66 44.999435,44.999435 0 0 1 -45.129,-44.393 44.999435,44.999435 0 0 1 43.917,-45.593"
               sodipodi:open="true"
               sodipodi:end="4.6884082"
               sodipodi:start="4.7304531"
               sodipodi:ry="44.999435"
               sodipodi:rx="44.999435"
               sodipodi:cy="-18243.188"
               sodipodi:cx="-27421.439"
               sodipodi:type="arc"
               id="path5299"
               style="opacity:1;fill:#c3c2c3;fill-opacity:1;stroke:none;stroke-width:74.80000305;stroke-linecap:square;stroke-linejoin:round;stroke-miterlimit:4;stroke-dasharray:none;stroke-opacity:1" />
            <path
               style="opacity:1;fill:#f0f0f0;fill-opacity:1;stroke:none;stroke-width:74.80000305;stroke-linecap:square;stroke-linejoin:round;stroke-miterlimit:4;stroke-dasharray:none;stroke-opacity:1"
               id="path5301"
               sodipodi:type="arc"
               sodipodi:cx="-27421.439"
               sodipodi:cy="-18243.188"
               sodipodi:rx="21.111053"
               sodipodi:ry="21.111053"
               sodipodi:start="4.7304531"
               sodipodi:end="4.6884082"
               sodipodi:open="true"
               d="m -27421.058,-18264.295 a 21.111053,21.111053 0 0 1 20.729,21.267 21.111053,21.111053 0 0 1 -21.048,20.951 21.111053,21.111053 0 0 1 -21.172,-20.826 21.111053,21.111053 0 0 1 20.603,-21.389" />
            <path
               d="m -27421.169,-18258.185 a 15.000118,15.000118 0 0 1 14.729,15.111 15.000118,15.000118 0 0 1 -14.955,14.887 15.000118,15.000118 0 0 1 -15.043,-14.798 15.000118,15.000118 0 0 1 14.639,-15.198"
               sodipodi:open="true"
               sodipodi:end="4.6884082"
               sodipodi:start="4.7304531"
               sodipodi:ry="15.000118"
               sodipodi:rx="15.000118"
               sodipodi:cy="-18243.188"
               sodipodi:cx="-27421.439"
               sodipodi:type="arc"
               id="path5303"
               style="opacity:1;fill:#c3c2c3;fill-opacity:1;stroke:none;stroke-width:74.80000305;stroke-linecap:square;stroke-linejoin:round;stroke-miterlimit:4;stroke-dasharray:none;stroke-opacity:1" />
            <path
               style="opacity:1;fill:#3f3d40;fill-opacity:1;stroke:none;stroke-width:74.80000305;stroke-linecap:square;stroke-linejoin:round;stroke-miterlimit:4;stroke-dasharray:none;stroke-opacity:1"
               id="path5305"
               sodipodi:type="arc"
               sodipodi:cx="-27421.439"
               sodipodi:cy="-18243.186"
               sodipodi:rx="5.5559454"
               sodipodi:ry="5.5559454"
               sodipodi:start="4.7304531"
               sodipodi:end="4.6884082"
               sodipodi:open="true"
               d="m -27421.339,-18248.741 a 5.5559454,5.5559454 0 0 1 5.455,5.597 5.5559454,5.5559454 0 0 1 -5.539,5.514 5.5559454,5.5559454 0 0 1 -5.572,-5.481 5.5559454,5.5559454 0 0 1 5.422,-5.629" />
            <path
               d="m -27421.399,-18279.408 a 2.2227082,2.2227082 0 0 1 2.182,2.239 2.2227082,2.2227082 0 0 1 -2.216,2.206 2.2227082,2.2227082 0 0 1 -2.229,-2.193 2.2227082,2.2227082 0 0 1 2.169,-2.252"
               sodipodi:open="true"
               sodipodi:end="4.6884082"
               sodipodi:start="4.7304531"
               sodipodi:ry="2.2227082"
               sodipodi:rx="2.2227082"
               sodipodi:cy="-18277.186"
               sodipodi:cx="-27421.439"
               sodipodi:type="arc"
               id="path5307"
               style="opacity:1;fill:#f0f0f0;fill-opacity:1;stroke:none;stroke-width:74.80000305;stroke-linecap:square;stroke-linejoin:round;stroke-miterlimit:4;stroke-dasharray:none;stroke-opacity:1" />
            <path
               style="opacity:1;fill:#f0f0f0;fill-opacity:1;stroke:none;stroke-width:74.80000305;stroke-linecap:square;stroke-linejoin:round;stroke-miterlimit:4;stroke-dasharray:none;stroke-opacity:1"
               id="path5309"
               sodipodi:type="arc"
               sodipodi:cx="-27421.439"
               sodipodi:cy="-18211.186"
               sodipodi:rx="2.2227082"
               sodipodi:ry="2.2227082"
               sodipodi:start="4.7304531"
               sodipodi:end="4.6884082"
               sodipodi:open="true"
               d="m -27421.399,-18213.408 a 2.2227082,2.2227082 0 0 1 2.182,2.239 2.2227082,2.2227082 0 0 1 -2.216,2.206 2.2227082,2.2227082 0 0 1 -2.229,-2.193 2.2227082,2.2227082 0 0 1 2.169,-2.252" />
            <path
               style="opacity:1;fill:#f0f0f0;fill-opacity:1;stroke:none;stroke-width:74.80000305;stroke-linecap:square;stroke-linejoin:round;stroke-miterlimit:4;stroke-dasharray:none;stroke-opacity:1"
               id="path5311"
               sodipodi:type="arc"
               sodipodi:cx="-27389.439"
               sodipodi:cy="-18243.186"
               sodipodi:rx="2.2227082"
               sodipodi:ry="2.2227082"
               sodipodi:start="4.7304531"
               sodipodi:end="4.6884082"
               sodipodi:open="true"
               d="m -27389.399,-18245.408 a 2.2227082,2.2227082 0 0 1 2.182,2.239 2.2227082,2.2227082 0 0 1 -2.216,2.206 2.2227082,2.2227082 0 0 1 -2.229,-2.193 2.2227082,2.2227082 0 0 1 2.169,-2.252" />
            <path
               d="m -27399.399,-18223.408 a 2.2227082,2.2227082 0 0 1 2.182,2.239 2.2227082,2.2227082 0 0 1 -2.216,2.206 2.2227082,2.2227082 0 0 1 -2.229,-2.193 2.2227082,2.2227082 0 0 1 2.169,-2.252"
               sodipodi:open="true"
               sodipodi:end="4.6884082"
               sodipodi:start="4.7304531"
               sodipodi:ry="2.2227082"
               sodipodi:rx="2.2227082"
               sodipodi:cy="-18221.186"
               sodipodi:cx="-27399.439"
               sodipodi:type="arc"
               id="path5313"
               style="opacity:1;fill:#f0f0f0;fill-opacity:1;stroke:none;stroke-width:74.80000305;stroke-linecap:square;stroke-linejoin:round;stroke-miterlimit:4;stroke-dasharray:none;stroke-opacity:1" />
            <path
               style="opacity:1;fill:#f0f0f0;fill-opacity:1;stroke:none;stroke-width:74.80000305;stroke-linecap:square;stroke-linejoin:round;stroke-miterlimit:4;stroke-dasharray:none;stroke-opacity:1"
               id="path5315"
               sodipodi:type="arc"
               sodipodi:cx="-27399.439"
               sodipodi:cy="-18265.186"
               sodipodi:rx="2.2227082"
               sodipodi:ry="2.2227082"
               sodipodi:start="4.7304531"
               sodipodi:end="4.6884082"
               sodipodi:open="true"
               d="m -27399.399,-18267.408 a 2.2227082,2.2227082 0 0 1 2.182,2.239 2.2227082,2.2227082 0 0 1 -2.216,2.206 2.2227082,2.2227082 0 0 1 -2.229,-2.193 2.2227082,2.2227082 0 0 1 2.169,-2.252" />
            <path
               d="m -27445.399,-18267.408 a 2.2227082,2.2227082 0 0 1 2.182,2.239 2.2227082,2.2227082 0 0 1 -2.216,2.206 2.2227082,2.2227082 0 0 1 -2.229,-2.193 2.2227082,2.2227082 0 0 1 2.169,-2.252"
               sodipodi:open="true"
               sodipodi:end="4.6884082"
               sodipodi:start="4.7304531"
               sodipodi:ry="2.2227082"
               sodipodi:rx="2.2227082"
               sodipodi:cy="-18265.186"
               sodipodi:cx="-27445.439"
               sodipodi:type="arc"
               id="path5317"
               style="opacity:1;fill:#f0f0f0;fill-opacity:1;stroke:none;stroke-width:74.80000305;stroke-linecap:square;stroke-linejoin:round;stroke-miterlimit:4;stroke-dasharray:none;stroke-opacity:1" />
            <path
               style="opacity:1;fill:#f0f0f0;fill-opacity:1;stroke:none;stroke-width:74.80000305;stroke-linecap:square;stroke-linejoin:round;stroke-miterlimit:4;stroke-dasharray:none;stroke-opacity:1"
               id="path5319"
               sodipodi:type="arc"
               sodipodi:cx="-27453.439"
               sodipodi:cy="-18245.186"
               sodipodi:rx="2.2227082"
               sodipodi:ry="2.2227082"
               sodipodi:start="4.7304531"
               sodipodi:end="4.6884082"
               sodipodi:open="true"
               d="m -27453.399,-18247.408 a 2.2227082,2.2227082 0 0 1 2.182,2.239 2.2227082,2.2227082 0 0 1 -2.216,2.206 2.2227082,2.2227082 0 0 1 -2.229,-2.193 2.2227082,2.2227082 0 0 1 2.169,-2.252" />
            <path
               d="m -27445.399,-18221.408 a 2.2227082,2.2227082 0 0 1 2.182,2.239 2.2227082,2.2227082 0 0 1 -2.216,2.206 2.2227082,2.2227082 0 0 1 -2.229,-2.193 2.2227082,2.2227082 0 0 1 2.169,-2.252"
               sodipodi:open="true"
               sodipodi:end="4.6884082"
               sodipodi:start="4.7304531"
               sodipodi:ry="2.2227082"
               sodipodi:rx="2.2227082"
               sodipodi:cy="-18219.186"
               sodipodi:cx="-27445.439"
               sodipodi:type="arc"
               id="path5321"
               style="opacity:1;fill:#f0f0f0;fill-opacity:1;stroke:none;stroke-width:74.80000305;stroke-linecap:square;stroke-linejoin:round;stroke-miterlimit:4;stroke-dasharray:none;stroke-opacity:1" />
            <g
               id="g5329"
               transform="translate(-315.83194,3.9282579)">
              <path
                 style="opacity:1;fill:#c3c2c3;fill-opacity:1;stroke:none;stroke-width:74.80000305;stroke-linecap:square;stroke-linejoin:round;stroke-miterlimit:4;stroke-dasharray:none;stroke-opacity:1"
                 id="path5325"
                 sodipodi:type="arc"
                 sodipodi:cx="-27162.725"
                 sodipodi:cy="-18126.18"
                 sodipodi:rx="10.824845"
                 sodipodi:ry="10.824845"
                 sodipodi:start="4.7304531"
                 sodipodi:end="4.6884082"
                 sodipodi:open="true"
                 d="m -27162.529,-18137.003 a 10.824845,10.824845 0 0 1 10.629,10.905 10.824845,10.824845 0 0 1 -10.793,10.743 10.824845,10.824845 0 0 1 -10.855,-10.679 10.824845,10.824845 0 0 1 10.564,-10.967" />
              <path
                 inkscape:connector-curvature="0"
                 id="path5327"
                 d="m -27169.496,-18134.586 67.22,-50.832 -52.081,66.249 z"
                 style="fill:#c3c2c3;fill-opacity:1;fill-rule:evenodd;stroke:none;stroke-width:1px;stroke-linecap:butt;stroke-linejoin:miter;stroke-opacity:1" />
              <path
                 d="m -27162.639,-18130.893 a 4.7139096,4.7139096 0 0 1 4.628,4.749 4.7139096,4.7139096 0 0 1 -4.7,4.678 4.7139096,4.7139096 0 0 1 -4.727,-4.65 4.7139096,4.7139096 0 0 1 4.6,-4.776"
                 sodipodi:open="true"
                 sodipodi:end="4.6884082"
                 sodipodi:start="4.7304531"
                 sodipodi:ry="4.7139096"
                 sodipodi:rx="4.7139096"
                 sodipodi:cy="-18126.18"
                 sodipodi:cx="-27162.725"
                 sodipodi:type="arc"
                 id="path5323"
                 style="opacity:1;fill:#3f3d40;fill-opacity:1;stroke:none;stroke-width:74.80000305;stroke-linecap:square;stroke-linejoin:round;stroke-miterlimit:4;stroke-dasharray:none;stroke-opacity:1" />
            </g>
          </g>
          <path
             d="m -27513.154,-18324.84 a 5.0085287,5.0085287 0 0 1 4.918,5.046 5.0085287,5.0085287 0 0 1 -4.993,4.97 5.0085287,5.0085287 0 0 1 -5.023,-4.941 5.0085287,5.0085287 0 0 1 4.888,-5.074"
             sodipodi:open="true"
             sodipodi:end="4.6884082"
             sodipodi:start="4.7304531"
             sodipodi:ry="5.0085287"
             sodipodi:rx="5.0085287"
             sodipodi:cy="-18319.832"
             sodipodi:cx="-27513.244"
             sodipodi:type="arc"
             id="path5355"
             style="opacity:1;fill:#1c1a1d;fill-opacity:1;stroke:none;stroke-width:74.80000305;stroke-linecap:square;stroke-linejoin:round;stroke-miterlimit:4;stroke-dasharray:none;stroke-opacity:1" />
          <path
             style="opacity:1;fill:#1c1a1d;fill-opacity:1;stroke:none;stroke-width:74.80000305;stroke-linecap:square;stroke-linejoin:round;stroke-miterlimit:4;stroke-dasharray:none;stroke-opacity:1"
             id="path5357"
             sodipodi:type="arc"
             sodipodi:cx="-27517.244"
             sodipodi:cy="-18183.832"
             sodipodi:rx="5.0085287"
             sodipodi:ry="5.0085287"
             sodipodi:start="4.7304531"
             sodipodi:end="4.6884082"
             sodipodi:open="true"
             d="m -27517.154,-18188.84 a 5.0085287,5.0085287 0 0 1 4.918,5.046 5.0085287,5.0085287 0 0 1 -4.993,4.97 5.0085287,5.0085287 0 0 1 -5.023,-4.941 5.0085287,5.0085287 0 0 1 4.888,-5.074" />
          <path
             d="m -27517.154,-18042.84 a 5.0085287,5.0085287 0 0 1 4.918,5.046 5.0085287,5.0085287 0 0 1 -4.993,4.97 5.0085287,5.0085287 0 0 1 -5.023,-4.941 5.0085287,5.0085287 0 0 1 4.888,-5.074"
             sodipodi:open="true"
             sodipodi:end="4.6884082"
             sodipodi:start="4.7304531"
             sodipodi:ry="5.0085287"
             sodipodi:rx="5.0085287"
             sodipodi:cy="-18037.832"
             sodipodi:cx="-27517.244"
             sodipodi:type="arc"
             id="path5359"
             style="opacity:1;fill:#1c1a1d;fill-opacity:1;stroke:none;stroke-width:74.80000305;stroke-linecap:square;stroke-linejoin:round;stroke-miterlimit:4;stroke-dasharray:none;stroke-opacity:1" />
          <path
             style="opacity:1;fill:#1c1a1d;fill-opacity:1;stroke:none;stroke-width:74.80000305;stroke-linecap:square;stroke-linejoin:round;stroke-miterlimit:4;stroke-dasharray:none;stroke-opacity:1"
             id="path5361"
             sodipodi:type="arc"
             sodipodi:cx="-27299.244"
             sodipodi:cy="-18319.832"
             sodipodi:rx="5.0085287"
             sodipodi:ry="5.0085287"
             sodipodi:start="4.7304531"
             sodipodi:end="4.6884082"
             sodipodi:open="true"
             d="m -27299.154,-18324.84 a 5.0085287,5.0085287 0 0 1 4.918,5.046 5.0085287,5.0085287 0 0 1 -4.993,4.97 5.0085287,5.0085287 0 0 1 -5.023,-4.941 5.0085287,5.0085287 0 0 1 4.888,-5.074" />
          <path
             d="m -27293.154,-18184.84 a 5.0085287,5.0085287 0 0 1 4.918,5.046 5.0085287,5.0085287 0 0 1 -4.993,4.97 5.0085287,5.0085287 0 0 1 -5.023,-4.941 5.0085287,5.0085287 0 0 1 4.888,-5.074"
             sodipodi:open="true"
             sodipodi:end="4.6884082"
             sodipodi:start="4.7304531"
             sodipodi:ry="5.0085287"
             sodipodi:rx="5.0085287"
             sodipodi:cy="-18179.832"
             sodipodi:cx="-27293.244"
             sodipodi:type="arc"
             id="path5363"
             style="opacity:1;fill:#1c1a1d;fill-opacity:1;stroke:none;stroke-width:74.80000305;stroke-linecap:square;stroke-linejoin:round;stroke-miterlimit:4;stroke-dasharray:none;stroke-opacity:1" />
          <path
             style="opacity:1;fill:#1c1a1d;fill-opacity:1;stroke:none;stroke-width:74.80000305;stroke-linecap:square;stroke-linejoin:round;stroke-miterlimit:4;stroke-dasharray:none;stroke-opacity:1"
             id="path5365"
             sodipodi:type="arc"
             sodipodi:cx="-27293.244"
             sodipodi:cy="-18035.832"
             sodipodi:rx="5.0085287"
             sodipodi:ry="5.0085287"
             sodipodi:start="4.7304531"
             sodipodi:end="4.6884082"
             sodipodi:open="true"
             d="m -27293.154,-18040.84 a 5.0085287,5.0085287 0 0 1 4.918,5.046 5.0085287,5.0085287 0 0 1 -4.993,4.97 5.0085287,5.0085287 0 0 1 -5.023,-4.941 5.0085287,5.0085287 0 0 1 4.888,-5.074" />
        </g>
        <rect
           style="opacity:1;fill:#bc3908;fill-opacity:1;stroke:none;stroke-width:74.80000305;stroke-linecap:square;stroke-linejoin:round;stroke-miterlimit:4;stroke-dasharray:none;stroke-opacity:1"
           id="rect5401"
           width="36.925625"
           height="29.461935"
           x="-27493.633"
           y="-18178.396"
           ry="0" />
      </g>
    </g>
  </g>
</svg>
